<svg xmlns="http://www.w3.org/2000/svg" viewBox="2 0 32 32" xml:space="preserve"><path d="M11.5 15h-3a.5.5 0 0 1-.5-.5V6.985C8 5.891 8.891 5 9.985 5 11.109 5 12 5.891 12 6.985V14.5a.5.5 0 0 1-.5.5zM9 14h2V6.985A.986.986 0 0 0 10.015 6C9.442 6 9 6.442 9 6.985V14zM11.5 23h-3a.5.5 0 0 1-.5-.5v-6a.5.5 0 0 1 .5-.5h3a.5.5 0 0 1 .5.5v6a.5.5 0 0 1-.5.5zM9 22h2v-5H9v5zM10 28a.5.5 0 0 1-.447-.276l-1.5-3A.502.502 0 0 1 8.5 24h3a.498.498 0 0 1 .447.723l-1.5 3A.5.5 0 0 1 10 28zm-.691-3L10 26.382 10.691 25H9.309z"/><path d="M9 8h2v1H9z"/><path d="M5.069 19c-.276 0-.534-.224-.534-.5S4.724 18 5 18c.485 0 .871-.188 1.129-.515.257-.326.348-.745.25-1.149l-1.043-4.314a3.24 3.24 0 0 1 .607-2.779A3.236 3.236 0 0 1 8.502 8H9a.5.5 0 0 1 0 1h-.498a2.24 2.24 0 0 0-1.773.861 2.241 2.241 0 0 0-.42 1.926l1.043 4.314c.17.703.011 1.434-.438 2.003A2.33 2.33 0 0 1 5.069 19zM26.5 25h-12a.5.5 0 0 1-.5-.5v-16a.5.5 0 0 1 .5-.5h12a.5.5 0 0 1 .5.5v16a.5.5 0 0 1-.5.5zM15 24h11V9H15v15z"/><path d="M23 15h-5a.5.5 0 0 1 0-1h5a.5.5 0 0 1 0 1zM23 17h-5a.5.5 0 0 1 0-1h5a.5.5 0 0 1 0 1zM23 19h-5a.5.5 0 0 1 0-1h5a.5.5 0 0 1 0 1zM17.5 10.5a.5.5 0 0 1-.5-.5V7a.5.5 0 0 1 1 0v3a.5.5 0 0 1-.5.5zM23.5 10.5a.5.5 0 0 1-.5-.5V7a.5.5 0 0 1 1 0v3a.5.5 0 0 1-.5.5zM21.5 10.5a.5.5 0 0 1-.5-.5V7a.5.5 0 0 1 1 0v3a.5.5 0 0 1-.5.5zM19.5 10.5a.5.5 0 0 1-.5-.5V7a.5.5 0 0 1 1 0v3a.5.5 0 0 1-.5.5z"/></svg>